<svg width="226" height="61" viewBox="0 0 226 61" fill="none" xmlns="http://www.w3.org/2000/svg">
<g clip-path="url(#clip0_584_8687)">
<path d="M0 10.0762H7V22.4562L9.756 19.4362L13.476 18.5602L20.608 21.4922L22.4 28.8842V43.7602H15.356V29.0602L14.48 25.7362L11.548 24.5562L8.356 26.0882L7 30.5962V43.7642H0V10.0762Z" fill="#FF97DA"/>
<path d="M46.9881 24.0758L50.6641 34.0958L46.9881 44.1158L38.3681 47.2198L29.7041 44.1158L26.0281 34.0958L29.7041 24.0758L38.3681 20.9678L46.9881 24.0758ZM42.1761 39.4318L43.4881 34.0958L42.1761 28.8038L38.3681 26.9238L34.5201 28.8038L33.2081 34.0958L34.5201 39.4318L38.3681 41.2678L42.1761 39.4318Z" fill="#04A056"/>
<path d="M55.2281 15.4161H61.8361V18.9161L64.7681 15.4601L68.8801 14.4961L73.3881 15.6761L75.7921 19.2201L78.9401 15.5441L83.0961 14.4961L88.7401 16.6841L90.7521 23.0281V39.7841H83.7081V24.9081L83.0521 21.7161L80.7321 20.4921L77.7561 21.9801L76.4441 26.1361V39.7841H69.4441V24.9081L68.6121 21.4961L66.4681 20.4881L63.3601 22.3241L62.2681 27.1801V39.7801H55.2241V15.4121L55.2281 15.4161Z" fill="#F21622"/>
<path d="M107.972 37.8558L110.772 36.9798L112.304 34.9678L117.248 38.6878L114.8 41.9238L107.492 43.8038L98.96 40.6998L95.196 30.6798L98.96 20.6598L107.492 17.5518L115.804 20.4838L119.436 29.6718L119.408 31.6598L119.064 32.6918H102.328L104.036 36.5838L107.972 37.8518V37.8558ZM112.172 27.9238L110.728 24.6878L107.316 23.5078L104.08 24.6878L102.46 27.9238H112.172Z" fill="#FDCB08"/>
<path d="M143.808 38.3482L145.34 35.2002L151.288 38.0882L148.18 43.2082L140.96 45.2642L132.648 42.1562L129.104 32.1362L132.604 22.1202L140.96 19.0122L148.18 21.0682L151.332 26.3202L145.384 29.1642L143.852 25.9682L140.964 24.9602L137.508 26.8402L136.284 32.1322L137.464 37.4682L140.964 39.3042L143.808 38.3402V38.3482Z" fill="#0062DD"/>
<path d="M169.86 23.8719L169.028 21.4679L165.92 20.2439L162.9 21.4239L161.588 23.9159L156.12 21.0719L159.62 16.0399L166.268 14.4199L174.012 16.8239L176.856 24.5239V39.7039H170.12V37.1679L166.928 39.9679L163.036 40.6679L157.216 38.8759L154.768 33.6679L157.392 27.8919L169.86 24.4359V23.8679V23.8719ZM161.896 33.1919L162.552 34.6799L164.696 35.3359L167.804 34.3719L169.816 32.0959L169.86 28.7719L162.816 31.0039L161.896 33.1919Z" fill="#FF97DA"/>
<path d="M184.888 27.3682H181.256V21.8122H184.888V20.6322L186.596 14.1122L192.416 11.5762L197.884 12.3202L196.88 18.1402L194.344 17.6602L192.464 18.3162L191.808 20.5482V21.8162H196.972V27.3722H191.808V46.1402H184.896V27.3722L184.888 27.3682Z" fill="#F46604"/>
<path d="M213.868 39.856L216.668 38.98L218.2 36.968L223.144 40.688L220.696 43.928L213.388 45.808L204.856 42.7L201.092 32.68L204.856 22.664L213.388 19.556L221.7 22.488L225.332 31.676L225.304 33.664L224.96 34.696H208.224L209.932 38.588L213.868 39.856ZM218.068 29.924L216.624 26.688L213.212 25.508L209.976 26.688L208.356 29.924H218.068ZM221.48 7.252L214.94 17.152L210.4 14.156L214.94 2.896L221.48 7.256V7.252Z" fill="#04A056"/>
<path d="M62.0039 51.4598C61.7039 50.6358 62.1239 49.7238 62.9519 49.4198C62.1279 49.7198 61.2159 49.2998 60.9119 48.4718C60.6079 47.6438 61.0319 46.7358 61.8599 46.4318C61.0359 46.7318 60.1239 46.3118 59.8199 45.4838C59.5159 44.6558 59.9399 43.7478 60.7679 43.4438L44.7319 49.3158L48.0119 58.2718L64.0479 52.3998C63.2239 52.6998 62.3119 52.2798 62.0079 51.4518L62.0039 51.4598Z" stroke="#FF97DA" stroke-width="1.444" stroke-linejoin="bevel"/>
<path d="M70.896 44.8198L60.764 43.4478L59.676 43.8478" stroke="#FF97DA" stroke-width="1.444" stroke-linejoin="bevel"/>
<path d="M46.3682 53.7997L60.9162 48.4717" stroke="#FF97DA" stroke-width="1.444" stroke-linejoin="bevel"/>
<path d="M70.8959 44.8198L64.0439 52.4038L63.2119 52.7118" stroke="#FF97DA" stroke-width="1.444" stroke-linejoin="bevel"/>
<path d="M72.396 44.2679L66.884 43.6279L68.6 48.3119L72.396 44.2679Z" fill="#FF97DA"/>
<path d="M201.064 48.5959L210.94 52.9879C211.276 53.1399 211.568 53.3799 211.776 53.6839L211.804 53.7239C212.392 54.5799 212.028 55.3719 210.996 55.4839C210.692 55.5159 210.38 55.4799 210.092 55.3719L199.092 51.3359C198.02 50.9439 197.496 49.7359 197.936 48.6879L198.564 47.1919C198.992 46.1759 200.164 45.6959 201.18 46.1239L216.18 52.4199C216.564 52.5799 217.364 53.3639 217.58 53.7199L219.068 56.2639C219.052 57.9119 218.172 58.7239 216.516 59.2239L215.088 59.6559C214.66 59.7839 214.204 59.7679 213.788 59.6039L198.236 53.5719" stroke="#FF97DA" stroke-width="1.62" stroke-linejoin="bevel"/>
<path d="M30.7159 7.19611L28.7759 2.99211C29.9959 2.26411 29.7279 1.78011 29.7279 1.78011C29.7279 1.78011 29.6479 1.51611 29.4839 1.10811C29.4839 1.10811 29.4839 1.10811 29.4839 1.10411C29.4079 0.920105 29.2239 0.808105 29.0279 0.808105C28.6639 0.808105 27.8999 0.880105 26.6359 1.31611C24.7639 1.96411 24.5239 2.46011 24.3639 2.60811C24.3279 2.64011 24.3159 2.71211 24.3159 2.78411C24.3159 2.87211 24.3319 2.96411 24.3639 3.04811L24.5479 3.56811C24.5839 3.66811 24.6439 3.75611 24.7279 3.82011C24.9159 3.96011 25.3119 4.12411 26.0919 4.00811L27.3199 8.44411C27.3199 8.44411 25.9879 9.39211 26.3159 11.2721C26.6439 13.1521 33.1719 10.6201 33.3679 9.24811C33.5639 7.88811 30.7199 7.20011 30.7199 7.20011L30.7159 7.19611Z" stroke="#FF97DA" stroke-width="1.62" stroke-linejoin="bevel"/>
<path d="M29.9641 11.1041L31.8681 16.2961L32.9561 18.5481L32.3081 16.0561L30.4321 10.9321" stroke="#FF97DA" stroke-width="1.34" stroke-linejoin="bevel"/>
<path d="M123.636 14.8761L125.18 20.9401L127.844 15.3681L131.82 14.6241L133.392 11.3401L132.164 5.8841L125.684 2.2041L119.116 3.9361L116.832 8.7241L119.228 13.4641L123.636 14.8761Z" stroke="#FF97DA" stroke-width="1.444" stroke-linejoin="bevel"/>
<path d="M121.856 8.82812L129.684 10.5281" stroke="#FF97DA" stroke-width="1.444" stroke-linejoin="bevel"/>
<path d="M124.644 7.49219L123.768 11.4722" stroke="white" stroke-width="1.62" stroke-linejoin="bevel"/>
<path d="M127.764 8.18799L126.892 12.168" stroke="white" stroke-width="1.62" stroke-linejoin="bevel"/>
</g>
<defs>
<clipPath id="clip0_584_8687">
<rect width="225.332" height="60.54" fill="white"/>
</clipPath>
</defs>
</svg>
